<svg width="302" height="270" viewBox="0 0 302 270" fill="none" xmlns="http://www.w3.org/2000/svg">
<path d="M286.898 87.3793C295.239 87.3793 302 80.2696 302 71.4993C302 62.729 295.239 55.6193 286.898 55.6193C278.557 55.6193 271.796 62.729 271.796 71.4993C271.796 80.2696 278.557 87.3793 286.898 87.3793Z" fill="#1F1735"/>
<path d="M230.266 31.8002C238.606 31.8002 245.367 24.6905 245.367 15.9202C245.367 7.14995 238.606 0.0402374 230.266 0.0402374C221.925 0.0402374 215.164 7.14995 215.164 15.9202C215.164 24.6905 221.925 31.8002 230.266 31.8002Z" fill="#1F1735"/>
<path d="M222.714 71.4997C217.157 71.5008 211.71 73.1239 206.979 76.1883C202.811 69.5984 197.913 63.5535 192.387 58.181C192.452 57.3337 192.51 56.4846 192.51 55.6198C192.515 49.3883 190.774 43.2933 187.506 38.095C184.238 32.8967 179.587 28.8251 174.133 26.3879C168.679 23.9507 162.663 23.2557 156.836 24.3897C151.009 25.5238 145.628 28.4366 141.365 32.7649C133.277 31.558 125.072 31.4827 116.965 32.541C116.971 32.2922 117.001 32.0501 117.001 31.7998C117.007 26.4838 115.745 21.2511 113.328 16.5815C110.912 11.9119 107.42 7.95463 103.172 5.07257C98.9239 2.19051 94.0558 0.475812 89.0139 0.0856602C83.972 -0.304492 78.9175 0.642344 74.3139 2.83945C69.7104 5.03655 65.705 8.41362 62.6649 12.661C59.6247 16.9085 57.647 21.8904 56.9132 27.1501C56.1794 32.4099 56.713 37.7791 58.4649 42.7658C60.2168 47.7524 63.1309 52.1969 66.9404 55.6918C61.8841 60.2463 57.2976 65.3475 53.2566 70.9112C49.5285 67.649 45.1081 65.3789 40.3692 64.2929C35.6303 63.2069 30.7126 63.3371 26.0317 64.6723C21.3507 66.0074 17.0444 68.5084 13.477 71.9636C9.90962 75.4188 7.18596 79.7266 5.53662 84.5226C3.88728 89.3187 3.36079 94.4619 4.00145 99.5172C4.64211 104.573 6.4312 109.391 9.21739 113.566C12.0036 117.74 15.7049 121.148 20.0083 123.5C24.3117 125.852 29.0904 127.08 33.9405 127.08L34.0361 127.075C33.9865 128.395 33.9405 129.717 33.9405 131.05C33.9417 139.041 34.859 147.002 36.6725 154.763C27.696 158.314 19.7249 164.206 13.5072 171.885C7.28949 179.564 3.02909 188.778 1.12583 198.662C-0.77743 208.547 -0.261173 218.778 2.62621 228.395C5.51358 238.012 10.6773 246.7 17.6329 253.644C24.5885 260.588 33.108 265.559 42.3915 268.092C51.6751 270.625 61.4184 270.636 70.7071 268.124C79.9959 265.613 88.5255 260.661 95.4954 253.733C102.465 246.805 107.647 238.129 110.554 228.518C131.564 232.764 153.322 229.37 172.255 218.894C174.188 223.679 177.208 227.893 181.052 231.165C184.895 234.436 189.443 236.666 194.297 237.657C199.151 238.649 204.163 238.372 208.891 236.852C213.62 235.331 217.921 232.613 221.418 228.937C224.914 225.26 227.499 220.737 228.945 215.765C230.391 210.793 230.654 205.523 229.711 200.419C228.768 195.315 226.648 190.532 223.536 186.491C220.425 182.45 216.418 179.273 211.867 177.24C218.408 164.187 222.082 149.758 222.619 135.015L222.714 135.02C230.725 135.02 238.407 131.674 244.072 125.718C249.736 119.762 252.918 111.683 252.918 103.26C252.918 94.8367 249.736 86.7584 244.072 80.8022C238.407 74.846 230.725 71.4999 222.714 71.4999V71.4997Z" fill="#1F1735"/>
</svg>
