<svg width="84" height="84" viewBox="0 0 84 84" fill="none" xmlns="http://www.w3.org/2000/svg">
<path d="M33.4834 37.3463H16.8783V55.8634H33.4834V37.3463Z" fill="#CCCCCC"/>
<path d="M25.3998 78.4802L25.1145 82.3696C25.1016 82.5456 25.1266 82.7224 25.1878 82.888C25.249 83.0537 25.345 83.2043 25.4694 83.3299C25.5938 83.4555 25.7436 83.5532 25.9089 83.6163C26.0742 83.6794 26.2512 83.7065 26.4278 83.6958L28.431 83.5748C28.5238 83.5692 28.6143 83.5432 28.6959 83.4988C28.7775 83.4544 28.8483 83.3926 28.9033 83.3178C28.9583 83.243 28.9961 83.1571 29.014 83.0661C29.0319 82.9751 29.0295 82.8813 29.0069 82.7913L27.895 78.3558L25.3998 78.4802Z" fill="#E6E6E6"/>
<path d="M42.1552 80.7802C44.5128 81.3302 46.1969 82.1119 47.3032 83.17C47.6972 83.5439 48.2128 83.7643 48.756 83.7911C49.4499 83.8274 50.0172 83.7499 50.4436 83.5599H50.4436C50.5529 83.5119 50.6472 83.4356 50.7169 83.339C50.7865 83.2424 50.829 83.1289 50.8399 83.0103C50.8528 82.8899 50.8332 82.7683 50.783 82.6579C50.7329 82.5476 50.6541 82.4527 50.5548 82.383L44.9635 78.4154L42.5884 79.363L42.0344 79.9155C41.9744 79.9753 41.9292 80.0482 41.9022 80.1284C41.8753 80.2087 41.8673 80.294 41.879 80.3778C41.8907 80.4616 41.9218 80.5416 41.9697 80.6114C42.0176 80.6812 42.0811 80.739 42.1552 80.7802H42.1552Z" fill="#E6E6E6"/>
<path d="M34.8999 17.2777L18.9178 17.1301C18.9579 14.8086 19.4995 12.5289 20.6834 10.489C21.461 9.14919 21.4442 7.69112 21.2568 6.46271C20.9676 4.56704 21.64 2.62748 23.1342 1.42075C24.2761 0.496952 25.7173 0.0214146 27.1863 0.0837061L27.4966 0.0965999C28.5075 0.138496 29.4916 0.432982 30.3586 0.95302C31.2256 1.47306 31.9477 2.20198 32.4586 3.07287C32.9779 4.00257 33.1873 5.07286 33.0566 6.12906C32.9553 7.12285 33.1977 8.12677 33.7647 9.14025C34.7428 11.3657 34.9547 14.2135 34.8999 17.2777Z" fill="#1F1735"/>
<path d="M45.5928 78.6224L42.4561 79.4384L27.1819 46.2527L28.1365 78.6224H24.9999C21.6481 63.3933 15.5968 45.8174 18.3174 40.2684L34.5462 39.3164L45.5928 78.6224Z" fill="#40C561"/>
<path d="M27.0455 11.707C29.3804 11.707 31.2732 9.81935 31.2732 7.4908C31.2732 5.16224 29.3804 3.27458 27.0455 3.27458C24.7106 3.27458 22.8178 5.16224 22.8178 7.4908C22.8178 9.81935 24.7106 11.707 27.0455 11.707Z" fill="#AD8B5B"/>
<path d="M30.7277 15.2432L23.7725 14.8352C24.4541 13.2749 24.7264 11.7725 24.4544 10.3469H29.6367C29.6249 11.4415 30.1711 13.3349 30.7277 15.2432Z" fill="#AD8B5B"/>
<path d="M35.0917 40.5404L19.8176 41.6285L21.3859 14.6312L24.0453 13.8831L27.0455 14.5631L30.0458 13.067L31.955 13.7472L35.0917 40.5404Z" fill="#40C561"/>
<path d="M22.4087 59.9894L11.9759 57.6093C15.0781 47.3499 20.6669 23.8793 18.8629 15.5152L24.318 13.0671L22.4087 59.9894Z" fill="#E6E6E6"/>
<path d="M17.3628 30.3399L13.4078 27.8918L16.7807 18.0402C17.1569 17.0236 17.8774 16.1701 18.8177 15.6272L19.9539 14.9712L19.272 24.8997L17.3628 30.3399Z" fill="#E6E6E6"/>
<path d="M44.1608 57.7453C40.868 59.6452 32.637 60.7043 29.023 59.3774C28.7571 50.1079 28.2355 23.8879 29.9094 12.7951L35.91 15.2432L35.3645 22.5876C32.4958 28.8703 40.826 50.753 44.1608 57.7453Z" fill="#E6E6E6"/>
<path d="M43.6835 29.1159L40.0013 27.8918L35.0917 22.3155L35.9101 15.2431L44.0926 26.6678L43.6835 29.1159Z" fill="#E6E6E6"/>
<path d="M32.1436 34.4097C32.2039 34.6734 32.3665 34.9025 32.5958 35.0467C32.8252 35.191 33.1026 35.2387 33.3671 35.1793L36.4928 34.4734L36.0411 32.4837L32.9153 33.1895C32.6508 33.2493 32.4208 33.4114 32.2761 33.6402C32.1314 33.8691 32.0837 34.1458 32.1436 34.4097V34.4097Z" fill="#AD8B5B"/>
<path d="M30.7277 6.40273C28.3795 5.43976 26.0603 5.37008 23.7725 6.26672L22.8178 2.86655H31.546L30.7277 6.40273Z" fill="#1F1735"/>
<path d="M34.9554 32.108L36.7283 35.3722C39.7103 34.5428 42.2946 31.9279 44.7745 28.8439L44.0926 26.6678L39.865 27.7558L34.9554 32.108Z" fill="#E6E6E6"/>
<path d="M33.6598 25.3757H33.1143C33.1143 17.6812 31.5257 12.319 29.9776 12.319L29.8412 11.775C31.2296 11.775 32.1147 14.0067 32.6127 15.8789C33.288 18.417 33.6598 21.7897 33.6598 25.3757Z" fill="#1F1735"/>
<path d="M21.1131 23.4716H20.5676C20.5676 16.4247 22.1672 12.047 24.5225 12.047L24.3862 12.5911C22.757 12.5911 21.1131 15.9554 21.1131 23.4716Z" fill="#1F1735"/>
<path d="M33.3871 26.8718C34.1402 26.8718 34.7508 26.2628 34.7508 25.5117C34.7508 24.7605 34.1402 24.1516 33.3871 24.1516C32.6339 24.1516 32.0233 24.7605 32.0233 25.5117C32.0233 26.2628 32.6339 26.8718 33.3871 26.8718Z" fill="#1F1735"/>
<path d="M18.9311 26.7358H18.3856C18.3856 24.7859 19.4868 23.1996 20.8404 23.1996V23.7436C19.7876 23.7436 18.9311 25.0859 18.9311 26.7358Z" fill="#1F1735"/>
<path d="M23.2952 26.7358H22.7497C22.7497 25.0859 21.8932 23.7436 20.8404 23.7436V23.1996C22.194 23.1996 23.2952 24.7859 23.2952 26.7358Z" fill="#1F1735"/>
<path d="M23.0224 27.4158C23.3237 27.4158 23.5679 27.1722 23.5679 26.8718C23.5679 26.5713 23.3237 26.3277 23.0224 26.3277C22.7211 26.3277 22.4769 26.5713 22.4769 26.8718C22.4769 27.1722 22.7211 27.4158 23.0224 27.4158Z" fill="#1F1735"/>
<path d="M18.6583 27.4158C18.9596 27.4158 19.2038 27.1722 19.2038 26.8718C19.2038 26.5713 18.9596 26.3277 18.6583 26.3277C18.3571 26.3277 18.1128 26.5713 18.1128 26.8718C18.1128 27.1722 18.3571 27.4158 18.6583 27.4158Z" fill="#1F1735"/>
<path d="M11.8395 21.8691L15.2431 22.4752L23.0224 33.5066L18.8895 32.5368L11.8395 21.8691Z" fill="#40C561"/>
<path d="M11.2358 21.7341C11.1839 21.7348 11.1332 21.7495 11.089 21.7765C11.0447 21.8035 11.0086 21.8419 10.9843 21.8876C10.96 21.9333 10.9485 21.9847 10.951 22.0364C10.9534 22.088 10.9698 22.1381 10.9983 22.1813L18.27 33.1844C18.3106 33.2459 18.3732 33.2896 18.4451 33.3064L21.8284 34.1003C21.8855 34.1136 21.9452 34.1094 21.9998 34.0882C22.0544 34.0669 22.1012 34.0296 22.134 33.9811C22.1669 33.9327 22.1842 33.8755 22.1836 33.8171C22.1831 33.7586 22.1647 33.7017 22.131 33.6539L14.1471 22.3326C14.1255 22.3018 14.0979 22.2755 14.0661 22.2552C14.0342 22.235 13.9987 22.2213 13.9615 22.2147L11.2903 21.739C11.2723 21.7357 11.2541 21.7341 11.2358 21.7341V21.7341Z" fill="#1F1735"/>
<path d="M15.7719 29.6011L15.974 31.6313L19.1632 31.3156C19.4331 31.2888 19.6814 31.1563 19.8533 30.947C20.0252 30.7378 20.1068 30.469 20.08 30.1997C20.0532 29.9305 19.9203 29.683 19.7104 29.5115C19.5006 29.34 19.2311 29.2587 18.9611 29.2854L15.7719 29.6011Z" fill="#AD8B5B"/>
<path d="M12.9988 29.366C13.0034 30.0582 13.2822 30.7206 13.7744 31.2087C14.2665 31.6969 14.9322 31.9712 15.6264 31.972H16.1508L16.5325 28.7992L13.3715 27.6643L12.9988 29.366Z" fill="#E6E6E6"/>
<path d="M83 5H52C51.4477 5 51 5.44772 51 6V68C51 68.5523 51.4477 69 52 69H83C83.5523 69 84 68.5523 84 68V6C84 5.44772 83.5523 5 83 5Z" fill="#E6E6E6"/>
<path d="M52 64C52 64.5523 52.4477 65 53 65H82C82.5523 65 83 64.5523 83 64V10C83 9.44771 82.5523 9 82 9H53C52.4477 9 52 9.44772 52 10V64Z" fill="white"/>
<path d="M77.172 11.0218H58.3402C57.7879 11.0218 57.3402 11.4696 57.3402 12.0218V30.7972C57.3402 31.3494 57.7879 31.7972 58.3402 31.7972H77.172C77.7243 31.7972 78.172 31.3494 78.172 30.7972V12.0218C78.172 11.4696 77.7243 11.0218 77.172 11.0218Z" fill="#3F3D56"/>
<path d="M73.1905 20.5062C73.524 20.5062 73.7943 20.2366 73.7943 19.904C73.7943 19.5715 73.524 19.3018 73.1905 19.3018C72.857 19.3018 72.5867 19.5715 72.5867 19.904C72.5867 20.2366 72.857 20.5062 73.1905 20.5062Z" fill="#6C63FF"/>
<path d="M70.9261 18.3986C71.2596 18.3986 71.53 18.129 71.53 17.7964C71.53 17.4638 71.2596 17.1942 70.9261 17.1942C70.5927 17.1942 70.3223 17.4638 70.3223 17.7964C70.3223 18.129 70.5927 18.3986 70.9261 18.3986Z" fill="#6C63FF"/>
<path d="M70.6242 19.904C70.6242 19.904 70.6242 19.904 70.6242 19.904C70.5111 19.9041 70.399 19.92 70.2914 19.9511C70.1171 20.0013 69.9166 19.9613 69.8035 19.8196C69.704 19.6951 69.5968 19.5769 69.4823 19.4658C69.4383 19.4231 69.4166 19.3633 69.4166 19.3019V19.3019C69.4167 19.0656 69.3472 18.8344 69.2165 18.6373C69.0858 18.4402 68.8999 18.2858 68.6818 18.1934C68.4637 18.1009 68.2232 18.0746 67.9902 18.1176C67.8529 18.1429 67.7218 18.1917 67.6024 18.2611C67.4442 18.3529 67.2659 18.4172 67.0834 18.4058C66.8637 18.3921 66.643 18.3979 66.424 18.4233C66.4093 18.425 66.3975 18.4134 66.3975 18.3986V18.3986C66.3977 18.197 66.3472 17.9986 66.2506 17.8215C66.154 17.6444 66.0144 17.4943 65.8445 17.3851C65.6747 17.2758 65.4801 17.2107 65.2785 17.196C65.0769 17.1812 64.8748 17.2171 64.6907 17.3004C64.5066 17.3837 64.3465 17.5118 64.2249 17.6728C64.1034 17.8339 64.0243 18.0228 63.995 18.2223C63.9656 18.4217 63.987 18.6253 64.057 18.8144C64.0782 18.8715 64.1036 18.9268 64.1329 18.9797C64.2402 19.1732 64.2435 19.4332 64.0922 19.5946V19.5946C63.9516 19.7446 63.7173 19.7663 63.5264 19.6899C63.4641 19.6649 63.3996 19.6451 63.3335 19.6307C63.144 19.5896 62.9474 19.5945 62.7602 19.6451C62.5731 19.6958 62.4009 19.7906 62.2583 19.9216C62.1156 20.0526 62.0067 20.216 61.9408 20.3979C61.8748 20.5797 61.8538 20.7748 61.8794 20.9665C61.905 21.1582 61.9766 21.3409 62.088 21.4992C62.1994 21.6575 62.3473 21.7867 62.5194 21.8759C62.6915 21.9651 62.8825 22.0117 63.0765 22.0117V22.0117C63.0785 22.0116 63.0802 22.0133 63.0801 22.0153C63.0782 22.0641 63.0765 22.113 63.0765 22.1622C63.0765 22.1686 63.0765 22.1749 63.0765 22.1813C63.0792 22.6882 62.8055 23.1809 62.4351 23.527C62.3733 23.5848 62.3147 23.6461 62.2595 23.7107C62.0109 24.0019 61.8405 24.3513 61.7644 24.7261C61.6883 25.101 61.709 25.4889 61.8244 25.8536C61.9399 26.2183 62.1463 26.5478 62.4244 26.8111C62.7025 27.0744 63.0432 27.2629 63.4144 27.359C63.7855 27.455 64.1751 27.4555 64.5465 27.3602C64.9179 27.265 65.2589 27.0772 65.5376 26.8145C65.5996 26.756 65.6581 26.6943 65.7128 26.6296C66.0398 26.2431 66.5169 25.945 67.0226 25.922C67.3774 25.9059 67.7287 25.8398 68.0658 25.7254C68.3663 25.6234 68.7115 25.7593 68.9584 25.9587V25.9587C69.1121 26.0827 69.2939 26.1673 69.488 26.2049C69.6821 26.2425 69.8825 26.232 70.0715 26.1743C70.2606 26.1167 70.4326 26.0136 70.5724 25.8742C70.7122 25.7348 70.8155 25.5632 70.8733 25.3747C70.9311 25.1861 70.9417 24.9863 70.904 24.7928C70.8663 24.5992 70.7815 24.4179 70.6571 24.2646V24.2646C70.4572 24.0184 70.3215 23.6732 70.4238 23.373C70.5396 23.033 70.606 22.6772 70.6203 22.3164C70.6203 22.3143 70.6221 22.3127 70.6242 22.3128V22.3128C70.9445 22.3128 71.2517 22.1859 71.4781 21.96C71.7046 21.7342 71.8319 21.4278 71.8319 21.1084C71.8319 20.789 71.7046 20.4827 71.4781 20.2568C71.2517 20.0309 70.9445 19.904 70.6242 19.904C70.6242 19.904 70.6242 19.904 70.6242 19.904V19.904Z" fill="#6C63FF"/>
<path d="M69.8707 10.5702H64.7357C64.4863 10.5702 64.2841 10.7724 64.2841 11.0218C64.2841 11.2713 64.4863 11.4735 64.7357 11.4735H69.8707C70.1201 11.4735 70.3223 11.2713 70.3223 11.0218C70.3223 10.7724 70.1201 10.5702 69.8707 10.5702Z" fill="#E6E6E6"/>
<path d="M76.8319 35.4516H58C57.4477 35.4516 57 35.8994 57 36.4516V55.227C57 55.7793 57.4477 56.227 58 56.227H76.8319C77.3841 56.227 77.8319 55.7793 77.8319 55.227V36.4516C77.8319 35.8994 77.3841 35.4516 76.8319 35.4516Z" fill="#3F3D56"/>
<path d="M71.371 49.5427C71.521 49.5427 71.6427 49.4214 71.6427 49.2717C71.6427 49.1221 71.521 49.0008 71.371 49.0008C71.2209 49.0008 71.0992 49.1221 71.0992 49.2717C71.0992 49.4214 71.2209 49.5427 71.371 49.5427Z" fill="#6C63FF"/>
<path d="M70.352 48.5943C70.5021 48.5943 70.6237 48.473 70.6237 48.3233C70.6237 48.1736 70.5021 48.0523 70.352 48.0523C70.202 48.0523 70.0803 48.1736 70.0803 48.3233C70.0803 48.473 70.202 48.5943 70.352 48.5943Z" fill="#6C63FF"/>
<path d="M70.2162 49.2717C70.2162 49.2717 70.2162 49.2717 70.2162 49.2717C70.1653 49.2718 70.1148 49.2789 70.0664 49.2929C69.988 49.3155 69.8978 49.2975 69.8468 49.2338C69.8021 49.1777 69.7538 49.1246 69.7023 49.0746C69.6825 49.0553 69.6727 49.0284 69.6727 49.0008V49.0008C69.6728 48.8944 69.6415 48.7904 69.5827 48.7017C69.5239 48.613 69.4402 48.5435 69.3421 48.5019C69.2439 48.4603 69.1357 48.4485 69.0309 48.4678C68.9691 48.4792 68.9101 48.5012 68.8563 48.5324C68.7852 48.5738 68.7049 48.6027 68.6228 48.5975C68.5239 48.5914 68.4246 48.594 68.3261 48.6054C68.3194 48.6062 68.3141 48.601 68.3141 48.5943V48.5943C68.3142 48.5036 68.2915 48.4143 68.248 48.3346C68.2046 48.2549 68.1417 48.1874 68.0653 48.1382C67.9889 48.089 67.9013 48.0598 67.8106 48.0531C67.7198 48.0465 67.6289 48.0626 67.5461 48.1001C67.4632 48.1376 67.3912 48.1952 67.3365 48.2677C67.2818 48.3402 67.2462 48.4252 67.233 48.5149C67.2198 48.6047 67.2294 48.6963 67.2609 48.7814C67.2704 48.8071 67.2819 48.832 67.2951 48.8558C67.3433 48.9429 67.3448 49.0599 67.2768 49.1325V49.1325C67.2135 49.2 67.108 49.2098 67.0221 49.1754C66.9941 49.1641 66.9651 49.1552 66.9353 49.1488C66.8501 49.1302 66.7616 49.1325 66.6773 49.1552C66.5931 49.178 66.5157 49.2207 66.4515 49.2797C66.3873 49.3386 66.3383 49.4121 66.3086 49.494C66.2789 49.5758 66.2694 49.6636 66.281 49.7498C66.2925 49.8361 66.3247 49.9183 66.3748 49.9896C66.4249 50.0608 66.4915 50.119 66.569 50.1591C66.6464 50.1992 66.7324 50.2202 66.8197 50.2202V50.2202C66.8206 50.2201 66.8213 50.2209 66.8213 50.2218C66.8204 50.2438 66.8197 50.2658 66.8197 50.2879V50.2879C66.8197 50.521 66.6937 50.7474 66.5248 50.908C66.4993 50.9322 66.475 50.9578 66.452 50.9848C66.3401 51.1158 66.2635 51.273 66.2292 51.4417C66.195 51.6104 66.2043 51.785 66.2562 51.9491C66.3082 52.1132 66.4011 52.2614 66.5262 52.3799C66.6514 52.4984 66.8047 52.5832 66.9717 52.6265C67.1387 52.6697 67.3141 52.6699 67.4812 52.627C67.6483 52.5842 67.8018 52.4997 67.9272 52.3814V52.3814C68.1406 52.1803 68.4184 52.0038 68.7098 51.9708C68.8304 51.9571 68.9495 51.9305 69.0649 51.8914C69.2001 51.8454 69.3554 51.9066 69.4666 51.9963V51.9963C69.5357 52.0522 69.6175 52.0902 69.7049 52.1071C69.7922 52.124 69.8824 52.1193 69.9675 52.0934C70.0525 52.0674 70.1299 52.021 70.1928 51.9583C70.2558 51.8956 70.3023 51.8184 70.3283 51.7335C70.3543 51.6487 70.359 51.5588 70.3421 51.4717C70.3251 51.3846 70.2869 51.303 70.231 51.234V51.234C70.141 51.1232 70.0799 50.9679 70.126 50.8328C70.1781 50.6798 70.208 50.5197 70.2144 50.3573C70.2144 50.3564 70.2152 50.3556 70.2162 50.3557V50.3557C70.3603 50.3557 70.4985 50.2986 70.6004 50.1969C70.7024 50.0953 70.7596 49.9575 70.7596 49.8137C70.7596 49.67 70.7024 49.5321 70.6004 49.4305C70.4985 49.3288 70.3603 49.2717 70.2162 49.2717C70.2162 49.2717 70.2162 49.2717 70.2162 49.2717V49.2717Z" fill="#6C63FF"/>
<path d="M73.5027 44.4003C73.6528 44.4003 73.7744 44.279 73.7744 44.1294C73.7744 43.9797 73.6528 43.8584 73.5027 43.8584C73.3527 43.8584 73.231 43.9797 73.231 44.1294C73.231 44.279 73.3527 44.4003 73.5027 44.4003Z" fill="#6C63FF"/>
<path d="M74.1419 43.1651C74.292 43.1651 74.4137 43.0438 74.4137 42.8941C74.4137 42.7445 74.292 42.6231 74.1419 42.6231C73.9919 42.6231 73.8702 42.7445 73.8702 42.8941C73.8702 43.0438 73.9919 43.1651 74.1419 43.1651Z" fill="#6C63FF"/>
<path d="M73.1897 43.0208C73.1897 43.0208 73.1897 43.0208 73.1897 43.0208C73.1658 42.9361 73.1215 42.8588 73.0609 42.7953C73.0473 42.7812 73.0459 42.7589 73.0584 42.7438C73.1277 42.6599 73.1887 42.5697 73.2407 42.4742C73.2539 42.4499 73.2773 42.4332 73.3039 42.4257V42.4257C73.4066 42.3969 73.4985 42.3387 73.5682 42.2582C73.6379 42.1777 73.6822 42.0785 73.6958 41.9731C73.7093 41.8676 73.6914 41.7605 73.6443 41.6651C73.6165 41.6088 73.5793 41.558 73.5345 41.5149C73.4754 41.4579 73.4258 41.3887 73.4085 41.3084C73.3877 41.2119 73.3582 41.1173 73.3205 41.0258C73.3179 41.0197 73.3215 41.0131 73.328 41.0113V41.0113C73.4156 40.9868 73.4956 40.9408 73.5607 40.8775C73.6258 40.8142 73.674 40.7355 73.7007 40.6488C73.7275 40.5621 73.732 40.4701 73.7138 40.3812C73.6957 40.2923 73.6554 40.2094 73.5968 40.1401C73.5381 40.0707 73.463 40.0172 73.3782 39.9843C73.2934 39.9514 73.2017 39.9403 73.1115 39.952C73.0213 39.9636 72.9355 39.9977 72.8619 40.051C72.8395 40.0673 72.8184 40.0851 72.7989 40.1044C72.7282 40.1743 72.6164 40.2074 72.5281 40.1618V40.1618C72.4455 40.1192 72.4073 40.0197 72.417 39.9273C72.4202 39.8977 72.4209 39.8679 72.4191 39.838C72.4138 39.7512 72.3877 39.6668 72.3429 39.5922C72.2981 39.5175 72.2359 39.4547 72.1616 39.4091C72.0872 39.3634 72.003 39.3363 71.916 39.33C71.8289 39.3237 71.7417 39.3384 71.6615 39.3728C71.5814 39.4073 71.5107 39.4605 71.4556 39.5279C71.4004 39.5954 71.3623 39.675 71.3446 39.7603C71.3268 39.8455 71.3299 39.9337 71.3536 40.0174V40.0174C71.3539 40.0183 71.3534 40.0193 71.3525 40.0195C71.331 40.0246 71.3096 40.0298 71.2882 40.0358V40.0358C71.0631 40.0991 70.8103 40.039 70.6089 39.9203C70.5788 39.9026 70.5478 39.8864 70.516 39.8718C70.3592 39.7999 70.1866 39.7689 70.0146 39.7818C69.8425 39.7946 69.6765 39.8509 69.5322 39.9452C69.3878 40.0396 69.2699 40.169 69.1895 40.3212C69.1091 40.4735 69.0687 40.6436 69.0723 40.8157C69.0758 40.9877 69.1232 41.1561 69.2099 41.3049C69.2965 41.4537 69.4197 41.5781 69.5678 41.6665V41.6665C69.8189 41.8163 70.0655 42.0357 70.1763 42.3063C70.2222 42.4184 70.28 42.5254 70.349 42.6255C70.43 42.7429 70.4132 42.9088 70.3568 43.0398V43.0398C70.3217 43.1213 70.3071 43.2102 70.3145 43.2986C70.3218 43.387 70.3508 43.4723 70.3989 43.5469C70.447 43.6216 70.5127 43.6833 70.5904 43.7267C70.668 43.77 70.7551 43.7938 70.844 43.7957C70.933 43.7977 71.021 43.7779 71.1005 43.738C71.18 43.6981 71.2484 43.6393 71.2998 43.5669V43.5669C71.3823 43.4506 71.5152 43.3497 71.6576 43.3573C71.8197 43.366 71.9827 43.3513 72.1415 43.3134C72.1424 43.3131 72.1433 43.3137 72.1435 43.3146V43.3146C72.1628 43.3832 72.1955 43.4473 72.2396 43.5032C72.2838 43.5592 72.3386 43.6059 72.4008 43.6408C72.4631 43.6756 72.5316 43.6979 72.6025 43.7063C72.6734 43.7147 72.7453 43.7091 72.814 43.6898C72.8828 43.6705 72.947 43.6379 73.0031 43.5938C73.0592 43.5497 73.106 43.495 73.1409 43.4329C73.1758 43.3708 73.198 43.3024 73.2064 43.2317C73.2148 43.161 73.2091 43.0893 73.1897 43.0208C73.1897 43.0208 73.1897 43.0208 73.1897 43.0208V43.0208Z" fill="#6C63FF"/>
<path d="M62.9786 40.718C63.1287 40.718 63.2503 40.5966 63.2503 40.447C63.2503 40.2973 63.1287 40.176 62.9786 40.176C62.8286 40.176 62.7069 40.2973 62.7069 40.447C62.7069 40.5966 62.8286 40.718 62.9786 40.718Z" fill="#6C63FF"/>
<path d="M61.5893 40.829C61.7393 40.829 61.861 40.7077 61.861 40.558C61.861 40.4083 61.7393 40.287 61.5893 40.287C61.4392 40.287 61.3175 40.4083 61.3175 40.558C61.3175 40.7077 61.4392 40.829 61.5893 40.829Z" fill="#6C63FF"/>
<path d="M69.5305 35H64.3956C64.1462 35 63.944 35.2022 63.944 35.4516C63.944 35.7011 64.1462 35.9033 64.3956 35.9033H69.5305C69.78 35.9033 69.9822 35.7011 69.9822 35.4516C69.9822 35.2022 69.78 35 69.5305 35Z" fill="#E6E6E6"/>
<path d="M12.4249 83.7144H3.97135L3.06561 76.4882H13.3306L12.4249 83.7144Z" fill="#E6E6E6"/>
<path d="M1.80051 73.8149C3.97724 76.7221 8.49569 77.0281 8.49569 77.0281C8.49569 77.0281 9.48498 72.6206 7.30825 69.7134C5.13153 66.8062 0.613077 66.5003 0.613077 66.5003C0.613077 66.5003 -0.376214 70.9077 1.80051 73.8149Z" fill="#E6E6E6"/>
<path d="M12.8892 74.9078C11.4529 76.8262 8.47126 77.0281 8.47126 77.0281C8.47126 77.0281 7.81846 74.1197 9.25482 72.2014C10.6912 70.283 13.6728 70.0811 13.6728 70.0811C13.6728 70.0811 14.3256 72.9895 12.8892 74.9078Z" fill="#E6E6E6"/>
</svg>
